<svg xmlns="http://www.w3.org/2000/svg" version="1.1" xmlns:xlink="http://www.w3.org/1999/xlink" xmlns:svgjs="http://svgjs.com/svgjs" width="1440" height="539.41" preserveAspectRatio="none" viewBox="0 0 1440 539.41"><g mask="url(&quot;#SvgjsMask1261&quot;)" fill="none"><rect width="1440" height="539.41" x="0" y="0" fill="#0e2a47"></rect><path d="M74.88 57.23L139.84 94.73L139.84 169.73L74.88 207.23L9.93 169.73L9.93 94.73zM74.88 282.23L139.84 319.73L139.84 394.73L74.88 432.23L9.93 394.73L9.93 319.73zM9.93 394.73L74.88 432.23L74.88 507.23L9.93 544.73L-55.02 507.23L-55.02 432.23zM139.84 -55.27L204.79 -17.77L204.79 57.23L139.84 94.73L74.88 57.23L74.88 -17.77zM269.75 -55.27L334.7 -17.77L334.7 57.23L269.75 94.73L204.79 57.23L204.79 -17.77zM334.7 57.23L399.65 94.73L399.65 169.73L334.7 207.23L269.75 169.73L269.75 94.73zM334.7 507.23L399.65 544.73L399.65 619.73L334.7 657.23L269.75 619.73L269.75 544.73zM464.61 282.23L529.56 319.73L529.56 394.73L464.61 432.23L399.65 394.73L399.65 319.73zM529.56 169.73L594.51 207.23L594.51 282.23L529.56 319.73L464.61 282.23L464.61 207.23zM594.51 282.23L659.47 319.73L659.47 394.73L594.51 432.23L529.56 394.73L529.56 319.73zM659.47 -55.27L724.42 -17.77L724.42 57.23L659.47 94.73L594.51 57.23L594.51 -17.77zM724.42 57.23L789.38 94.73L789.38 169.73L724.42 207.23L659.47 169.73L659.47 94.73zM854.33 57.23L919.28 94.73L919.28 169.73L854.33 207.23L789.37 169.73L789.37 94.73zM789.37 169.73L854.33 207.23L854.33 282.23L789.37 319.73L724.42 282.23L724.42 207.23zM984.24 57.23L1049.19 94.73L1049.19 169.73L984.24 207.23L919.28 169.73L919.28 94.73zM1114.14 57.23L1179.1 94.73L1179.1 169.73L1114.14 207.23L1049.19 169.73L1049.19 94.73zM1049.19 169.73L1114.14 207.23L1114.14 282.23L1049.19 319.73L984.24 282.23L984.24 207.23zM1114.14 282.23L1179.1 319.73L1179.1 394.73L1114.14 432.23L1049.19 394.73L1049.19 319.73zM1049.19 394.73L1114.14 432.23L1114.14 507.23L1049.19 544.73L984.24 507.23L984.24 432.23zM1114.14 507.23L1179.1 544.73L1179.1 619.73L1114.14 657.23L1049.19 619.73L1049.19 544.73zM1179.1 -55.27L1244.05 -17.77L1244.05 57.23L1179.1 94.73L1114.14 57.23L1114.14 -17.77zM1244.05 282.23L1309 319.73L1309 394.73L1244.05 432.23L1179.1 394.73L1179.1 319.73zM1179.1 394.73L1244.05 432.23L1244.05 507.23L1179.1 544.73L1114.14 507.23L1114.14 432.23zM1373.96 57.23L1438.91 94.73L1438.91 169.73L1373.96 207.23L1309.01 169.73L1309.01 94.73zM1309.01 169.73L1373.96 207.23L1373.96 282.23L1309.01 319.73L1244.05 282.23L1244.05 207.23zM1438.91 -55.27L1503.87 -17.77L1503.87 57.23L1438.91 94.73L1373.96 57.23L1373.96 -17.77zM1503.87 57.23L1568.82 94.73L1568.82 169.73L1503.87 207.23L1438.91 169.73L1438.91 94.73zM1438.91 169.73L1503.87 207.23L1503.87 282.23L1438.91 319.73L1373.96 282.23L1373.96 207.23zM1503.87 282.23L1568.82 319.73L1568.82 394.73L1503.87 432.23L1438.91 394.73L1438.91 319.73zM1503.87 507.23L1568.82 544.73L1568.82 619.73L1503.87 657.23L1438.91 619.73L1438.91 544.73z" stroke="#03305d" stroke-width="2"></path><path d="M67.38 57.23 a7.5 7.5 0 1 0 15 0 a7.5 7.5 0 1 0 -15 0zM132.34 94.73 a7.5 7.5 0 1 0 15 0 a7.5 7.5 0 1 0 -15 0zM132.34 169.73 a7.5 7.5 0 1 0 15 0 a7.5 7.5 0 1 0 -15 0zM67.38 207.23 a7.5 7.5 0 1 0 15 0 a7.5 7.5 0 1 0 -15 0zM2.43 169.73 a7.5 7.5 0 1 0 15 0 a7.5 7.5 0 1 0 -15 0zM2.43 94.73 a7.5 7.5 0 1 0 15 0 a7.5 7.5 0 1 0 -15 0zM67.38 282.23 a7.5 7.5 0 1 0 15 0 a7.5 7.5 0 1 0 -15 0zM132.34 319.73 a7.5 7.5 0 1 0 15 0 a7.5 7.5 0 1 0 -15 0zM132.34 394.73 a7.5 7.5 0 1 0 15 0 a7.5 7.5 0 1 0 -15 0zM67.38 432.23 a7.5 7.5 0 1 0 15 0 a7.5 7.5 0 1 0 -15 0zM2.43 394.73 a7.5 7.5 0 1 0 15 0 a7.5 7.5 0 1 0 -15 0zM2.43 319.73 a7.5 7.5 0 1 0 15 0 a7.5 7.5 0 1 0 -15 0zM67.38 507.23 a7.5 7.5 0 1 0 15 0 a7.5 7.5 0 1 0 -15 0zM2.43 544.73 a7.5 7.5 0 1 0 15 0 a7.5 7.5 0 1 0 -15 0zM-62.52 507.23 a7.5 7.5 0 1 0 15 0 a7.5 7.5 0 1 0 -15 0zM-62.52 432.23 a7.5 7.5 0 1 0 15 0 a7.5 7.5 0 1 0 -15 0zM132.34 -55.27 a7.5 7.5 0 1 0 15 0 a7.5 7.5 0 1 0 -15 0zM197.29 -17.77 a7.5 7.5 0 1 0 15 0 a7.5 7.5 0 1 0 -15 0zM197.29 57.23 a7.5 7.5 0 1 0 15 0 a7.5 7.5 0 1 0 -15 0zM67.38 -17.77 a7.5 7.5 0 1 0 15 0 a7.5 7.5 0 1 0 -15 0zM262.25 -55.27 a7.5 7.5 0 1 0 15 0 a7.5 7.5 0 1 0 -15 0zM327.2 -17.77 a7.5 7.5 0 1 0 15 0 a7.5 7.5 0 1 0 -15 0zM327.2 57.23 a7.5 7.5 0 1 0 15 0 a7.5 7.5 0 1 0 -15 0zM262.25 94.73 a7.5 7.5 0 1 0 15 0 a7.5 7.5 0 1 0 -15 0zM392.15 94.73 a7.5 7.5 0 1 0 15 0 a7.5 7.5 0 1 0 -15 0zM392.15 169.73 a7.5 7.5 0 1 0 15 0 a7.5 7.5 0 1 0 -15 0zM327.2 207.23 a7.5 7.5 0 1 0 15 0 a7.5 7.5 0 1 0 -15 0zM262.25 169.73 a7.5 7.5 0 1 0 15 0 a7.5 7.5 0 1 0 -15 0zM327.2 507.23 a7.5 7.5 0 1 0 15 0 a7.5 7.5 0 1 0 -15 0zM392.15 544.73 a7.5 7.5 0 1 0 15 0 a7.5 7.5 0 1 0 -15 0zM392.15 619.73 a7.5 7.5 0 1 0 15 0 a7.5 7.5 0 1 0 -15 0zM327.2 657.23 a7.5 7.5 0 1 0 15 0 a7.5 7.5 0 1 0 -15 0zM262.25 619.73 a7.5 7.5 0 1 0 15 0 a7.5 7.5 0 1 0 -15 0zM262.25 544.73 a7.5 7.5 0 1 0 15 0 a7.5 7.5 0 1 0 -15 0zM457.11 282.23 a7.5 7.5 0 1 0 15 0 a7.5 7.5 0 1 0 -15 0zM522.06 319.73 a7.5 7.5 0 1 0 15 0 a7.5 7.5 0 1 0 -15 0zM522.06 394.73 a7.5 7.5 0 1 0 15 0 a7.5 7.5 0 1 0 -15 0zM457.11 432.23 a7.5 7.5 0 1 0 15 0 a7.5 7.5 0 1 0 -15 0zM392.15 394.73 a7.5 7.5 0 1 0 15 0 a7.5 7.5 0 1 0 -15 0zM392.15 319.73 a7.5 7.5 0 1 0 15 0 a7.5 7.5 0 1 0 -15 0zM522.06 169.73 a7.5 7.5 0 1 0 15 0 a7.5 7.5 0 1 0 -15 0zM587.01 207.23 a7.5 7.5 0 1 0 15 0 a7.5 7.5 0 1 0 -15 0zM587.01 282.23 a7.5 7.5 0 1 0 15 0 a7.5 7.5 0 1 0 -15 0zM457.11 207.23 a7.5 7.5 0 1 0 15 0 a7.5 7.5 0 1 0 -15 0zM651.97 319.73 a7.5 7.5 0 1 0 15 0 a7.5 7.5 0 1 0 -15 0zM651.97 394.73 a7.5 7.5 0 1 0 15 0 a7.5 7.5 0 1 0 -15 0zM587.01 432.23 a7.5 7.5 0 1 0 15 0 a7.5 7.5 0 1 0 -15 0zM651.97 -55.27 a7.5 7.5 0 1 0 15 0 a7.5 7.5 0 1 0 -15 0zM716.92 -17.77 a7.5 7.5 0 1 0 15 0 a7.5 7.5 0 1 0 -15 0zM716.92 57.23 a7.5 7.5 0 1 0 15 0 a7.5 7.5 0 1 0 -15 0zM651.97 94.73 a7.5 7.5 0 1 0 15 0 a7.5 7.5 0 1 0 -15 0zM587.01 57.23 a7.5 7.5 0 1 0 15 0 a7.5 7.5 0 1 0 -15 0zM587.01 -17.77 a7.5 7.5 0 1 0 15 0 a7.5 7.5 0 1 0 -15 0zM781.88 94.73 a7.5 7.5 0 1 0 15 0 a7.5 7.5 0 1 0 -15 0zM781.88 169.73 a7.5 7.5 0 1 0 15 0 a7.5 7.5 0 1 0 -15 0zM716.92 207.23 a7.5 7.5 0 1 0 15 0 a7.5 7.5 0 1 0 -15 0zM651.97 169.73 a7.5 7.5 0 1 0 15 0 a7.5 7.5 0 1 0 -15 0zM846.83 57.23 a7.5 7.5 0 1 0 15 0 a7.5 7.5 0 1 0 -15 0zM911.78 94.73 a7.5 7.5 0 1 0 15 0 a7.5 7.5 0 1 0 -15 0zM911.78 169.73 a7.5 7.5 0 1 0 15 0 a7.5 7.5 0 1 0 -15 0zM846.83 207.23 a7.5 7.5 0 1 0 15 0 a7.5 7.5 0 1 0 -15 0zM781.87 169.73 a7.5 7.5 0 1 0 15 0 a7.5 7.5 0 1 0 -15 0zM781.87 94.73 a7.5 7.5 0 1 0 15 0 a7.5 7.5 0 1 0 -15 0zM846.83 282.23 a7.5 7.5 0 1 0 15 0 a7.5 7.5 0 1 0 -15 0zM781.87 319.73 a7.5 7.5 0 1 0 15 0 a7.5 7.5 0 1 0 -15 0zM716.92 282.23 a7.5 7.5 0 1 0 15 0 a7.5 7.5 0 1 0 -15 0zM976.74 57.23 a7.5 7.5 0 1 0 15 0 a7.5 7.5 0 1 0 -15 0zM1041.69 94.73 a7.5 7.5 0 1 0 15 0 a7.5 7.5 0 1 0 -15 0zM1041.69 169.73 a7.5 7.5 0 1 0 15 0 a7.5 7.5 0 1 0 -15 0zM976.74 207.23 a7.5 7.5 0 1 0 15 0 a7.5 7.5 0 1 0 -15 0zM1106.64 57.23 a7.5 7.5 0 1 0 15 0 a7.5 7.5 0 1 0 -15 0zM1171.6 94.73 a7.5 7.5 0 1 0 15 0 a7.5 7.5 0 1 0 -15 0zM1171.6 169.73 a7.5 7.5 0 1 0 15 0 a7.5 7.5 0 1 0 -15 0zM1106.64 207.23 a7.5 7.5 0 1 0 15 0 a7.5 7.5 0 1 0 -15 0zM1106.64 282.23 a7.5 7.5 0 1 0 15 0 a7.5 7.5 0 1 0 -15 0zM1041.69 319.73 a7.5 7.5 0 1 0 15 0 a7.5 7.5 0 1 0 -15 0zM976.74 282.23 a7.5 7.5 0 1 0 15 0 a7.5 7.5 0 1 0 -15 0zM1171.6 319.73 a7.5 7.5 0 1 0 15 0 a7.5 7.5 0 1 0 -15 0zM1171.6 394.73 a7.5 7.5 0 1 0 15 0 a7.5 7.5 0 1 0 -15 0zM1106.64 432.23 a7.5 7.5 0 1 0 15 0 a7.5 7.5 0 1 0 -15 0zM1041.69 394.73 a7.5 7.5 0 1 0 15 0 a7.5 7.5 0 1 0 -15 0zM1106.64 507.23 a7.5 7.5 0 1 0 15 0 a7.5 7.5 0 1 0 -15 0zM1041.69 544.73 a7.5 7.5 0 1 0 15 0 a7.5 7.5 0 1 0 -15 0zM976.74 507.23 a7.5 7.5 0 1 0 15 0 a7.5 7.5 0 1 0 -15 0zM976.74 432.23 a7.5 7.5 0 1 0 15 0 a7.5 7.5 0 1 0 -15 0zM1171.6 544.73 a7.5 7.5 0 1 0 15 0 a7.5 7.5 0 1 0 -15 0zM1171.6 619.73 a7.5 7.5 0 1 0 15 0 a7.5 7.5 0 1 0 -15 0zM1106.64 657.23 a7.5 7.5 0 1 0 15 0 a7.5 7.5 0 1 0 -15 0zM1041.69 619.73 a7.5 7.5 0 1 0 15 0 a7.5 7.5 0 1 0 -15 0zM1171.6 -55.27 a7.5 7.5 0 1 0 15 0 a7.5 7.5 0 1 0 -15 0zM1236.55 -17.77 a7.5 7.5 0 1 0 15 0 a7.5 7.5 0 1 0 -15 0zM1236.55 57.23 a7.5 7.5 0 1 0 15 0 a7.5 7.5 0 1 0 -15 0zM1106.64 -17.77 a7.5 7.5 0 1 0 15 0 a7.5 7.5 0 1 0 -15 0zM1236.55 282.23 a7.5 7.5 0 1 0 15 0 a7.5 7.5 0 1 0 -15 0zM1301.5 319.73 a7.5 7.5 0 1 0 15 0 a7.5 7.5 0 1 0 -15 0zM1301.5 394.73 a7.5 7.5 0 1 0 15 0 a7.5 7.5 0 1 0 -15 0zM1236.55 432.23 a7.5 7.5 0 1 0 15 0 a7.5 7.5 0 1 0 -15 0zM1236.55 507.23 a7.5 7.5 0 1 0 15 0 a7.5 7.5 0 1 0 -15 0zM1366.46 57.23 a7.5 7.5 0 1 0 15 0 a7.5 7.5 0 1 0 -15 0zM1431.41 94.73 a7.5 7.5 0 1 0 15 0 a7.5 7.5 0 1 0 -15 0zM1431.41 169.73 a7.5 7.5 0 1 0 15 0 a7.5 7.5 0 1 0 -15 0zM1366.46 207.23 a7.5 7.5 0 1 0 15 0 a7.5 7.5 0 1 0 -15 0zM1301.51 169.73 a7.5 7.5 0 1 0 15 0 a7.5 7.5 0 1 0 -15 0zM1301.51 94.73 a7.5 7.5 0 1 0 15 0 a7.5 7.5 0 1 0 -15 0zM1366.46 282.23 a7.5 7.5 0 1 0 15 0 a7.5 7.5 0 1 0 -15 0zM1301.51 319.73 a7.5 7.5 0 1 0 15 0 a7.5 7.5 0 1 0 -15 0zM1236.55 207.23 a7.5 7.5 0 1 0 15 0 a7.5 7.5 0 1 0 -15 0zM1431.41 -55.27 a7.5 7.5 0 1 0 15 0 a7.5 7.5 0 1 0 -15 0zM1496.37 -17.77 a7.5 7.5 0 1 0 15 0 a7.5 7.5 0 1 0 -15 0zM1496.37 57.23 a7.5 7.5 0 1 0 15 0 a7.5 7.5 0 1 0 -15 0zM1366.46 -17.77 a7.5 7.5 0 1 0 15 0 a7.5 7.5 0 1 0 -15 0zM1561.32 94.73 a7.5 7.5 0 1 0 15 0 a7.5 7.5 0 1 0 -15 0zM1561.32 169.73 a7.5 7.5 0 1 0 15 0 a7.5 7.5 0 1 0 -15 0zM1496.37 207.23 a7.5 7.5 0 1 0 15 0 a7.5 7.5 0 1 0 -15 0zM1496.37 282.23 a7.5 7.5 0 1 0 15 0 a7.5 7.5 0 1 0 -15 0zM1431.41 319.73 a7.5 7.5 0 1 0 15 0 a7.5 7.5 0 1 0 -15 0zM1561.32 319.73 a7.5 7.5 0 1 0 15 0 a7.5 7.5 0 1 0 -15 0zM1561.32 394.73 a7.5 7.5 0 1 0 15 0 a7.5 7.5 0 1 0 -15 0zM1496.37 432.23 a7.5 7.5 0 1 0 15 0 a7.5 7.5 0 1 0 -15 0zM1431.41 394.73 a7.5 7.5 0 1 0 15 0 a7.5 7.5 0 1 0 -15 0zM1496.37 507.23 a7.5 7.5 0 1 0 15 0 a7.5 7.5 0 1 0 -15 0zM1561.32 544.73 a7.5 7.5 0 1 0 15 0 a7.5 7.5 0 1 0 -15 0zM1561.32 619.73 a7.5 7.5 0 1 0 15 0 a7.5 7.5 0 1 0 -15 0zM1496.37 657.23 a7.5 7.5 0 1 0 15 0 a7.5 7.5 0 1 0 -15 0zM1431.41 619.73 a7.5 7.5 0 1 0 15 0 a7.5 7.5 0 1 0 -15 0zM1431.41 544.73 a7.5 7.5 0 1 0 15 0 a7.5 7.5 0 1 0 -15 0z" fill="#03305d"></path><path d="M35.78 -29.83L79.08 -4.83L79.08 45.17L35.78 70.17L-7.52 45.17L-7.52 -4.83zM79.08 45.17L122.39 70.17L122.39 120.17L79.08 145.17L35.78 120.17L35.78 70.17zM35.78 120.17L79.08 145.17L79.08 195.17L35.78 220.17L-7.52 195.17L-7.52 145.17zM79.08 195.17L122.39 220.17L122.39 270.17L79.08 295.17L35.78 270.17L35.78 220.17zM122.39 -29.83L165.69 -4.83L165.69 45.17L122.39 70.17L79.08 45.17L79.08 -4.83zM122.39 270.17L165.69 295.17L165.69 345.17L122.39 370.17L79.08 345.17L79.08 295.17zM295.6 120.17L338.9 145.17L338.9 195.17L295.6 220.17L252.29 195.17L252.29 145.17zM295.6 420.17L338.9 445.17L338.9 495.17L295.6 520.17L252.29 495.17L252.29 445.17zM425.5 45.17L468.81 70.17L468.81 120.17L425.5 145.17L382.2 120.17L382.2 70.17zM382.2 270.17L425.5 295.17L425.5 345.17L382.2 370.17L338.9 345.17L338.9 295.17zM425.5 495.17L468.81 520.17L468.81 570.17L425.5 595.17L382.2 570.17L382.2 520.17zM512.11 45.17L555.41 70.17L555.41 120.17L512.11 145.17L468.81 120.17L468.81 70.17zM468.81 120.17L512.11 145.17L512.11 195.17L468.81 220.17L425.5 195.17L425.5 145.17zM598.71 195.17L642.01 220.17L642.01 270.17L598.71 295.17L555.41 270.17L555.41 220.17zM555.41 270.17L598.71 295.17L598.71 345.17L555.41 370.17L512.11 345.17L512.11 295.17zM598.71 345.17L642.01 370.17L642.01 420.17L598.71 445.17L555.41 420.17L555.41 370.17zM555.41 420.17L598.71 445.17L598.71 495.17L555.41 520.17L512.11 495.17L512.11 445.17zM642.01 -29.83L685.32 -4.83L685.32 45.17L642.01 70.17L598.71 45.17L598.71 -4.83zM642.01 270.17L685.32 295.17L685.32 345.17L642.01 370.17L598.71 345.17L598.71 295.17zM685.32 495.17L728.62 520.17L728.62 570.17L685.32 595.17L642.01 570.17L642.01 520.17zM728.62 -29.83L771.92 -4.83L771.92 45.17L728.62 70.17L685.32 45.17L685.32 -4.83zM728.62 120.17L771.92 145.17L771.92 195.17L728.62 220.17L685.32 195.17L685.32 145.17zM815.23 420.17L858.53 445.17L858.53 495.17L815.23 520.17L771.92 495.17L771.92 445.17zM901.83 -29.83L945.13 -4.83L945.13 45.17L901.83 70.17L858.53 45.17L858.53 -4.83zM901.83 270.17L945.13 295.17L945.13 345.17L901.83 370.17L858.53 345.17L858.53 295.17zM945.13 345.17L988.44 370.17L988.44 420.17L945.13 445.17L901.83 420.17L901.83 370.17zM901.83 420.17L945.13 445.17L945.13 495.17L901.83 520.17L858.53 495.17L858.53 445.17zM988.44 270.17L1031.74 295.17L1031.74 345.17L988.44 370.17L945.13 345.17L945.13 295.17zM1118.34 345.17L1161.64 370.17L1161.64 420.17L1118.34 445.17L1075.04 420.17L1075.04 370.17zM1161.64 -29.83L1204.95 -4.83L1204.95 45.17L1161.64 70.17L1118.34 45.17L1118.34 -4.83zM1161.64 270.17L1204.95 295.17L1204.95 345.17L1161.64 370.17L1118.34 345.17L1118.34 295.17zM1204.95 345.17L1248.25 370.17L1248.25 420.17L1204.95 445.17L1161.64 420.17L1161.64 370.17zM1161.64 420.17L1204.95 445.17L1204.95 495.17L1161.64 520.17L1118.34 495.17L1118.34 445.17zM1204.95 495.17L1248.25 520.17L1248.25 570.17L1204.95 595.17L1161.64 570.17L1161.64 520.17zM1291.55 45.17L1334.86 70.17L1334.86 120.17L1291.55 145.17L1248.25 120.17L1248.25 70.17zM1248.25 120.17L1291.55 145.17L1291.55 195.17L1248.25 220.17L1204.95 195.17L1204.95 145.17zM1334.86 -29.83L1378.16 -4.83L1378.16 45.17L1334.86 70.17L1291.55 45.17L1291.55 -4.83zM1334.86 120.17L1378.16 145.17L1378.16 195.17L1334.86 220.17L1291.55 195.17L1291.55 145.17zM1421.46 -29.83L1464.76 -4.83L1464.76 45.17L1421.46 70.17L1378.16 45.17L1378.16 -4.83zM1464.76 45.17L1508.07 70.17L1508.07 120.17L1464.76 145.17L1421.46 120.17L1421.46 70.17zM1464.76 345.17L1508.07 370.17L1508.07 420.17L1464.76 445.17L1421.46 420.17L1421.46 370.17z" stroke="rgba(6, 80, 156, 0.93)" stroke-width="2"></path></g><defs><mask id="SvgjsMask1261"><rect width="1440" height="539.41" fill="#ffffff"></rect></mask></defs></svg>